<svg width="44" height="46" viewBox="0 0 44 46" fill="none" xmlns="http://www.w3.org/2000/svg">
<rect width="43.1339" height="46" rx="21.5669" fill="#F2F3F4"/>
<path fill-rule="evenodd" clip-rule="evenodd" d="M13.5674 23C13.5674 22.4477 14.0151 22 14.5674 22H28.5674C29.1197 22 29.5674 22.4477 29.5674 23C29.5674 23.5523 29.1197 24 28.5674 24H14.5674C14.0151 24 13.5674 23.5523 13.5674 23Z" fill="#253D4E"/>
<path fill-rule="evenodd" clip-rule="evenodd" d="M20.8603 15.2929C21.2508 14.9024 21.884 14.9024 22.2745 15.2929L29.2745 22.2929C29.665 22.6834 29.665 23.3166 29.2745 23.7071L22.2745 30.7071C21.884 31.0976 21.2508 31.0976 20.8603 30.7071C20.4698 30.3166 20.4698 29.6834 20.8603 29.2929L27.1532 23L20.8603 16.7071C20.4698 16.3166 20.4698 15.6834 20.8603 15.2929Z" fill="#253D4E"/>
</svg>
