<svg width="53" height="52" viewBox="0 0 53 52" fill="none" xmlns="http://www.w3.org/2000/svg">
<g clip-path="url(#clip0_845_321)">
<path d="M21.6665 39.226C23.3261 37.6789 23.5817 35.2556 22.2373 33.8135C20.8929 32.3713 18.4576 32.4563 16.798 34.0034C15.1384 35.5505 14.8828 37.9738 16.2272 39.416C17.5716 40.8582 20.0068 40.7731 21.6665 39.226Z" fill="url(#paint0_linear_845_321)"/>
<path d="M43.6255 39.228C45.2851 37.6809 45.5407 35.2576 44.1963 33.8154C42.8519 32.3732 40.4166 32.4583 38.757 34.0054C37.0974 35.5525 36.8418 37.9758 38.1862 39.4179C39.5306 40.8601 41.9658 40.7751 43.6255 39.228Z" fill="url(#paint1_linear_845_321)"/>
<path d="M4.25156 20.2908C4.25156 19.3331 3.47514 18.5566 2.51738 18.5566C1.55962 18.5566 0.783203 19.3331 0.783203 20.2908C0.783203 21.2486 1.55962 22.025 2.51738 22.025C3.47514 22.025 4.25156 21.2486 4.25156 20.2908Z" fill="url(#paint2_linear_845_321)"/>
<path d="M35.4227 36.2526C36.0392 33.2058 38.9175 30.7845 42.0111 30.7845C44.9899 30.7845 47.1369 33.0301 47.078 35.9175C50.2996 36.0018 51.1964 31.7595 51.1964 31.7595C51.4676 30.5733 51.8728 28.2607 52.212 25.9908C52.3232 25.29 52.2378 24.572 51.9652 23.9169C51.1231 21.951 50.1054 20.0652 48.9244 18.2822C47.8073 16.6155 45.9334 15.6284 43.7945 15.5928C42.5189 15.5725 41.2666 15.5603 40.3211 15.5603L40.313 15.5522C40.1911 13.5128 38.7042 11.9508 36.6171 11.7639C35.2592 11.643 29.8805 11.5547 27.2987 11.5547C26.273 11.5547 24.8013 11.5689 23.3124 11.5933V11.5872H23.3002H5.39883C5.17099 11.5871 4.94536 11.6318 4.73483 11.719C4.52431 11.8061 4.33303 11.9339 4.17192 12.095C4.01081 12.2561 3.88304 12.4474 3.79591 12.6579C3.70878 12.8684 3.66401 13.094 3.66414 13.3219V13.33C3.66414 13.7879 3.84605 14.2271 4.16984 14.5509C4.49363 14.8747 4.93279 15.0566 5.3907 15.0566H8.99922C9.43373 15.0886 9.84006 15.2837 10.1367 15.6028C10.4334 15.9219 10.5985 16.3413 10.5988 16.777V16.7862C10.5995 17.0142 10.5552 17.2402 10.4684 17.4511C10.3817 17.662 10.2542 17.8538 10.0933 18.0153C9.93233 18.1769 9.74112 18.3052 9.53056 18.3928C9.32 18.4804 9.09423 18.5257 8.86617 18.5259H7.0157C6.5559 18.5259 6.11494 18.7086 5.78981 19.0337C5.46468 19.3588 5.28203 19.7998 5.28203 20.2596C5.2819 20.4874 5.32664 20.7129 5.41371 20.9234C5.50077 21.1338 5.62845 21.3251 5.78945 21.4862C5.95045 21.6472 6.14161 21.775 6.35202 21.8622C6.56242 21.9494 6.78795 21.9943 7.0157 21.9943H8.86617C9.32624 21.9943 9.76746 22.1771 10.0928 22.5024C10.4181 22.8277 10.6009 23.2689 10.6009 23.729C10.6009 24.189 10.4181 24.6303 10.0928 24.9556C9.76746 25.2809 9.32624 25.4637 8.86617 25.4637H1.94367C1.48378 25.4637 1.04271 25.6463 0.717421 25.9714C0.392134 26.2965 0.209254 26.7374 0.208984 27.1973C0.208984 27.6574 0.391745 28.0986 0.717062 28.4239C1.04238 28.7493 1.4836 28.932 1.94367 28.932H8.86617C9.32624 28.932 9.76746 29.1148 10.0928 29.4401C10.4181 29.7654 10.6009 30.2066 10.6009 30.6667C10.6003 31.1264 10.4173 31.5671 10.0921 31.892C9.7668 32.2169 9.32589 32.3994 8.86617 32.3994H6.72523C6.26543 32.3994 5.82447 32.582 5.49934 32.9071C5.17422 33.2323 4.99156 33.6732 4.99156 34.133C4.99156 34.5929 5.17418 35.034 5.49928 35.3593C5.82438 35.6846 6.26534 35.8675 6.72523 35.8677L13.5563 35.8626L14.1241 34.4479C15.287 32.3029 17.6005 30.7835 20.0502 30.7835C23.1448 30.7835 25.3427 33.2068 25.1009 36.2557H35.4217L35.4227 36.2526ZM18.217 19.3334H15.8892C15.887 19.3335 15.8849 19.3344 15.8833 19.3359C15.8816 19.3374 15.8805 19.3393 15.8801 19.3415L15.6658 20.8649C15.6655 20.8661 15.6654 20.8674 15.6657 20.8687C15.666 20.8699 15.6665 20.871 15.6673 20.872C15.6681 20.873 15.6691 20.8738 15.6702 20.8743C15.6714 20.8749 15.6726 20.8751 15.6739 20.8751H17.4066C17.4916 20.8727 17.5761 20.8893 17.6539 20.9236C17.7318 20.958 17.8009 21.0094 17.8564 21.0739C17.9119 21.1384 17.9522 21.2145 17.9746 21.2966C17.9969 21.3787 18.0006 21.4647 17.9855 21.5484C17.9558 21.7325 17.8629 21.9004 17.7227 22.0233C17.5826 22.1462 17.404 22.2164 17.2177 22.2218H15.483C15.4809 22.2217 15.4788 22.2224 15.4771 22.2237C15.4755 22.225 15.4743 22.2268 15.4738 22.2289L15.163 24.4419C15.1334 24.626 15.0404 24.7939 14.9003 24.9168C14.7602 25.0397 14.5816 25.1099 14.3952 25.1153C14.3102 25.1178 14.2257 25.1012 14.1479 25.0668C14.0702 25.0324 14.001 24.981 13.9456 24.9165C13.8903 24.852 13.85 24.7758 13.8278 24.6937C13.8056 24.6116 13.802 24.5256 13.8173 24.4419L14.6237 18.7016C14.6557 18.5073 14.7542 18.3301 14.9024 18.2004C15.0507 18.0707 15.2394 17.9966 15.4362 17.9907H18.4049C18.4899 17.9883 18.5744 18.0048 18.6522 18.0392C18.73 18.0736 18.7991 18.125 18.8545 18.1895C18.9099 18.2541 18.9502 18.3302 18.9724 18.4123C18.9946 18.4944 18.9981 18.5804 18.9828 18.6641C18.9527 18.8472 18.8598 19.0141 18.7201 19.1362C18.5804 19.2583 18.4025 19.328 18.217 19.3334ZM24.4387 18.4477C24.6806 18.6623 24.8507 18.9459 24.9262 19.2602C25.0107 19.6163 25.0245 19.9855 24.9669 20.347C24.8962 20.9093 24.6661 21.4397 24.3037 21.8755C24.0823 22.1372 23.8012 22.3417 23.4841 22.4716C23.4826 22.4731 23.4818 22.4751 23.4818 22.4772C23.4818 22.4793 23.4826 22.4813 23.4841 22.4828L24.0609 24.1474C24.2163 24.5943 23.8172 25.1153 23.3205 25.1153H23.288C23.1676 25.1188 23.0491 25.0839 22.9497 25.0157C22.8504 24.9474 22.7754 24.8492 22.7355 24.7355L22.0378 22.7042C22.0368 22.7027 22.0355 22.7014 22.0339 22.7005C22.0323 22.6997 22.0305 22.6992 22.0287 22.6991H20.5459C20.5438 22.6993 20.5418 22.7 20.5402 22.7013C20.5385 22.7025 20.5373 22.7043 20.5367 22.7062L20.293 24.4409C20.2633 24.625 20.1704 24.7929 20.0302 24.9158C19.8901 25.0387 19.7115 25.1089 19.5252 25.1143C19.4401 25.1167 19.3556 25.1002 19.2779 25.0658C19.2001 25.0314 19.131 24.98 19.0756 24.9155C19.0202 24.8509 18.9799 24.7748 18.9577 24.6927C18.9355 24.6106 18.9319 24.5246 18.9473 24.4409L19.7537 18.7006C19.7856 18.5063 19.8841 18.3291 20.0324 18.1994C20.1806 18.0697 20.3693 17.9956 20.5662 17.9897H22.8615C22.8615 17.9897 23.869 17.9582 24.4387 18.4477ZM30.7559 18.6163C30.7283 18.7882 30.6416 18.9451 30.5107 19.0599C30.3798 19.1746 30.2129 19.2401 30.0389 19.245H27.3688C27.3668 19.2451 27.3648 19.2459 27.3631 19.2471C27.3615 19.2484 27.3603 19.2501 27.3597 19.2521L27.1474 20.7593C27.1471 20.7605 27.1471 20.7618 27.1473 20.763C27.1476 20.7643 27.1481 20.7654 27.1489 20.7664C27.1497 20.7674 27.1507 20.7682 27.1519 20.7687C27.153 20.7692 27.1543 20.7695 27.1555 20.7695H29.2294C29.3089 20.7671 29.3878 20.7825 29.4605 20.8146C29.5332 20.8467 29.5978 20.8946 29.6496 20.9549C29.7014 21.0151 29.739 21.0862 29.7598 21.1629C29.7806 21.2396 29.784 21.32 29.7698 21.3981C29.7422 21.57 29.6554 21.7269 29.5245 21.8416C29.3936 21.9564 29.2268 22.0219 29.0527 22.0268H26.9778C26.9757 22.0269 26.9738 22.0276 26.9721 22.0289C26.9705 22.0302 26.9693 22.0319 26.9687 22.0339L26.7137 23.8478C26.7137 23.8503 26.7147 23.8528 26.7164 23.8547C26.718 23.8565 26.7204 23.8577 26.7229 23.858H29.3909C29.4704 23.8556 29.5493 23.871 29.622 23.9031C29.6947 23.9352 29.7593 23.9831 29.8111 24.0434C29.8629 24.1037 29.9005 24.1747 29.9213 24.2514C29.9421 24.3281 29.9455 24.4085 29.9312 24.4866C29.9036 24.6585 29.8169 24.8154 29.686 24.9302C29.5551 25.0449 29.3882 25.1104 29.2142 25.1153H25.9033C25.8139 25.1166 25.7254 25.0982 25.644 25.0614C25.5626 25.0246 25.4902 24.9704 25.4321 24.9026C25.3739 24.8347 25.3314 24.7549 25.3075 24.6688C25.2837 24.5828 25.279 24.4925 25.2939 24.4044L26.0952 18.7047C26.1272 18.5103 26.2257 18.3331 26.3739 18.2034C26.5222 18.0738 26.7109 17.9996 26.9077 17.9937H30.2176C30.2963 17.9919 30.3744 18.0074 30.4463 18.0393C30.5182 18.0712 30.5822 18.1186 30.6336 18.1781C30.6851 18.2376 30.7227 18.3077 30.7439 18.3835C30.765 18.4593 30.7691 18.5388 30.7559 18.6163ZM36.3023 18.6163C36.2747 18.7882 36.1879 18.9451 36.057 19.0599C35.9261 19.1746 35.7592 19.2401 35.5852 19.245H32.9151C32.9131 19.2451 32.9111 19.2459 32.9095 19.2471C32.9078 19.2484 32.9066 19.2501 32.906 19.2521L32.6948 20.7593C32.6944 20.7605 32.6944 20.7618 32.6947 20.763C32.6949 20.7643 32.6955 20.7654 32.6963 20.7664C32.6971 20.7674 32.6981 20.7682 32.6992 20.7687C32.7004 20.7692 32.7016 20.7695 32.7029 20.7695H34.7768C34.8562 20.7671 34.9352 20.7825 35.0078 20.8146C35.0805 20.8467 35.1451 20.8946 35.1969 20.9549C35.2487 21.0151 35.2864 21.0862 35.3072 21.1629C35.328 21.2396 35.3314 21.32 35.3171 21.3981C35.2895 21.57 35.2028 21.7269 35.0719 21.8416C34.941 21.9564 34.7741 22.0219 34.6001 22.0268H32.5241C32.5221 22.0269 32.5201 22.0276 32.5184 22.0289C32.5168 22.0302 32.5156 22.0319 32.515 22.0339L32.2601 23.8478C32.2601 23.8503 32.261 23.8528 32.2627 23.8547C32.2644 23.8565 32.2667 23.8577 32.2692 23.858H34.9373C35.0167 23.8556 35.0956 23.871 35.1683 23.9031C35.241 23.9352 35.3056 23.9831 35.3574 24.0434C35.4092 24.1037 35.4469 24.1747 35.4677 24.2514C35.4884 24.3281 35.4918 24.4085 35.4776 24.4866C35.45 24.6585 35.3632 24.8154 35.2323 24.9302C35.1014 25.0449 34.9346 25.1104 34.7605 25.1153H31.4496C31.3603 25.1166 31.2717 25.0982 31.1903 25.0614C31.1089 25.0246 31.0365 24.9704 30.9784 24.9026C30.9203 24.8347 30.8777 24.7549 30.8539 24.6688C30.83 24.5828 30.8253 24.4925 30.8402 24.4044L31.6416 18.7047C31.6735 18.5103 31.772 18.3331 31.9203 18.2034C32.0685 18.0738 32.2572 17.9996 32.4541 17.9937H35.764C35.8426 17.9919 35.9207 18.0074 35.9926 18.0393C36.0645 18.0712 36.1285 18.1186 36.18 18.1781C36.2314 18.2376 36.2691 18.3077 36.2902 18.3835C36.3113 18.4593 36.3155 18.5388 36.3023 18.6163ZM40.1616 17.9653C41.0686 17.9653 42.2426 17.9775 43.4208 17.9968C44.8487 18.0202 46.098 18.6762 46.8475 19.7955C47.6481 21.0024 48.3677 22.2612 49.0016 23.5634C49.3368 24.2459 48.7203 25.1346 47.9129 25.1346H39.2547L40.1616 17.9653Z" fill="url(#paint3_linear_845_321)"/>
<path d="M22.3176 21.443H20.7129L21.0176 19.2451H22.6212C22.6212 19.2451 23.7984 19.169 23.6054 20.3441C23.6105 20.3441 23.4754 21.443 22.3176 21.443Z" fill="url(#paint4_linear_845_321)"/>
</g>
<defs>
<linearGradient id="paint0_linear_845_321" x1="16.798" y1="34.0034" x2="21.6665" y2="39.226" gradientUnits="userSpaceOnUse">
<stop stop-color="#00B59C"/>
<stop offset="1" stop-color="#9CFFAC"/>
</linearGradient>
<linearGradient id="paint1_linear_845_321" x1="38.757" y1="34.0054" x2="43.6254" y2="39.228" gradientUnits="userSpaceOnUse">
<stop stop-color="#00B59C"/>
<stop offset="1" stop-color="#9CFFAC"/>
</linearGradient>
<linearGradient id="paint2_linear_845_321" x1="2.51738" y1="18.5566" x2="2.51738" y2="22.025" gradientUnits="userSpaceOnUse">
<stop stop-color="#00B59C"/>
<stop offset="1" stop-color="#9CFFAC"/>
</linearGradient>
<linearGradient id="paint3_linear_845_321" x1="26.2342" y1="11.5547" x2="26.2342" y2="36.2557" gradientUnits="userSpaceOnUse">
<stop stop-color="#00B59C"/>
<stop offset="1" stop-color="#9CFFAC"/>
</linearGradient>
<linearGradient id="paint4_linear_845_321" x1="22.1698" y1="19.2441" x2="22.1698" y2="21.443" gradientUnits="userSpaceOnUse">
<stop stop-color="#00B59C"/>
<stop offset="1" stop-color="#9CFFAC"/>
</linearGradient>
<clipPath id="clip0_845_321">
<rect width="52" height="52" fill="white" transform="translate(0.232422)"/>
</clipPath>
</defs>
</svg>
