<svg width="53" height="52" viewBox="0 0 53 52" fill="none" xmlns="http://www.w3.org/2000/svg">
<g clip-path="url(#clip0_845_306)">
<path d="M26.9708 24.5182C25.2852 24.1136 25.0918 23.9529 25.0918 22.9531C25.0918 21.6275 27.0393 20.973 27.8337 22.0397C28.338 22.7121 29.2947 22.849 29.9671 22.3431C30.6395 21.8388 30.7749 20.8837 30.2706 20.2097C29.7288 19.4876 28.9736 18.9775 28.1387 18.6785V16.8594C28.1387 16.0173 27.4573 15.3359 26.6152 15.3359C25.7732 15.3359 25.0918 16.0173 25.0918 16.8594V18.6634C23.3224 19.2943 22.0449 20.9696 22.0449 22.9531C22.0449 26.4686 24.6827 27.1024 26.2597 27.4818C27.9453 27.8864 28.1387 28.0471 28.1387 29.0469C28.1387 29.8874 27.4558 30.5703 26.6152 30.5703C26.1317 30.5703 25.6869 30.3486 25.3968 29.9603C24.8924 29.2879 23.9403 29.1554 23.2634 29.6569C22.5909 30.1612 22.4555 31.1163 22.9599 31.7903C23.5016 32.5124 24.2569 33.0225 25.0918 33.3215V35.1406C25.0918 35.9827 25.7732 36.6641 26.6152 36.6641C27.4573 36.6641 28.1387 35.9827 28.1387 35.1406V33.3366C29.9081 32.7057 31.1855 31.0304 31.1855 29.0469C31.1855 25.5314 28.5478 24.8976 26.9708 24.5182Z" fill="url(#paint0_linear_845_306)"/>
<path d="M52.6152 26.1016C52.6152 13.1241 42.9346 2.08213 30.0969 0.41732C29.3114 0.307227 28.6106 0.807117 28.4233 1.55838L26.9251 7.55249C26.6987 8.45193 27.3274 9.3538 28.267 9.43891C36.9375 10.2096 43.4746 17.3731 43.4746 26.1016C43.4746 31.7207 40.6509 36.9442 36.0226 40.0327L34.029 37.3756C33.2679 36.3564 31.6426 36.6699 31.3332 37.9201L28.2863 50.1076C28.0452 51.0657 28.7719 52 29.7637 52H41.9512C43.2079 52 43.9202 50.5617 43.1696 49.5631L41.5227 47.3657C48.5001 42.5187 52.6152 34.6873 52.6152 26.1016ZM24.9634 42.5611C16.2929 41.7904 9.75586 34.6269 9.75586 25.8984C9.75586 20.2793 12.5796 15.0558 17.2079 11.9673L19.2015 14.6244C19.956 15.6316 21.5856 15.34 21.8973 14.0799L24.9441 1.89241C25.1852 0.934273 24.4586 0 23.4668 0H11.2793C10.0226 0 9.3103 1.43833 10.0609 2.43689L11.7078 4.6343C4.73034 9.48127 0.615234 17.3127 0.615234 25.8984C0.615234 38.8759 10.2959 49.9179 23.1336 51.5827C23.8918 51.6838 24.6183 51.1992 24.8072 50.4416L26.3054 44.4475C26.5317 43.5481 25.9031 42.6462 24.9634 42.5611Z" fill="url(#paint1_linear_845_306)"/>
</g>
<defs>
<linearGradient id="paint0_linear_845_306" x1="26.6152" y1="36.6641" x2="26.6152" y2="15.3359" gradientUnits="userSpaceOnUse">
<stop stop-color="#C3FFE8"/>
<stop offset="0.9973" stop-color="#F0FFF4"/>
</linearGradient>
<linearGradient id="paint1_linear_845_306" x1="26.6152" y1="52" x2="26.6152" y2="0" gradientUnits="userSpaceOnUse">
<stop stop-color="#00B59C"/>
<stop offset="1" stop-color="#9CFFAC"/>
</linearGradient>
<clipPath id="clip0_845_306">
<rect width="52" height="52" fill="white" transform="translate(0.615234)"/>
</clipPath>
</defs>
</svg>
