<?xml version="1.0" encoding="UTF-8"?>
<!DOCTYPE svg PUBLIC "-//W3C//DTD SVG 1.1//EN" "http://www.w3.org/Graphics/SVG/1.1/DTD/svg11.dtd">
<svg xmlns="http://www.w3.org/2000/svg" version="1.1" width="84px" height="159px" style="shape-rendering:geometricPrecision; text-rendering:geometricPrecision; image-rendering:optimizeQuality; fill-rule:evenodd; clip-rule:evenodd" xmlns:xlink="http://www.w3.org/1999/xlink">
<g><path style="opacity:0.278" fill="#f9f06e" d="M 25.5,0.5 C 25.5,0.166667 25.5,-0.166667 25.5,-0.5C 36.1667,-0.5 46.8333,-0.5 57.5,-0.5C 61.3628,0.327248 65.3628,1.16058 69.5,2C 70.3805,2.7083 71.0472,3.54163 71.5,4.5C 66.7766,2.28144 61.7766,1.11477 56.5,1C 46.172,0.500173 35.8387,0.333507 25.5,0.5 Z"/></g>
<g><path style="opacity:1" fill="#f8d007" d="M 21.5,2.5 C 22.9778,2.23798 24.3112,2.57131 25.5,3.5C 24.6518,5.40864 24.3184,7.40864 24.5,9.5C 23.2267,10.0768 23.2267,10.7435 24.5,11.5C 26.4086,10.6518 28.4086,10.3184 30.5,10.5C 27.9471,11.5392 25.7804,13.2059 24,15.5C 23.2832,20.2196 23.4498,24.8862 24.5,29.5C 21.023,30.3227 17.3563,30.8227 13.5,31C 12.7476,31.6708 12.4142,32.5041 12.5,33.5C 12.1667,33.5 11.8333,33.5 11.5,33.5C 10.5084,33.6716 9.84171,33.3382 9.5,32.5C 10.2389,32.631 10.9056,32.4643 11.5,32C 10.192,23.7092 10.192,15.3759 11.5,7C 14.0825,4.00888 17.4158,2.50888 21.5,2.5 Z"/></g>
<g><path style="opacity:1" fill="#fcdc0c" d="M 25.5,0.5 C 35.8387,0.333507 46.172,0.500173 56.5,1C 61.7766,1.11477 66.7766,2.28144 71.5,4.5C 71.6567,5.87344 71.49,7.20677 71,8.5C 67.6618,3.11652 64.4952,3.28319 61.5,9C 59.1902,9.49665 56.8568,9.66331 54.5,9.5C 55.2625,8.73209 56.2625,8.23209 57.5,8C 56.6198,6.64387 56.2865,5.14387 56.5,3.5C 46.8428,2.27409 37.1762,2.27409 27.5,3.5C 26.181,5.53163 26.181,7.53163 27.5,9.5C 26.5,9.5 25.5,9.5 24.5,9.5C 24.3184,7.40864 24.6518,5.40864 25.5,3.5C 24.3112,2.57131 22.9778,2.23798 21.5,2.5C 22.8333,1.83333 24.1667,1.16667 25.5,0.5 Z"/></g>
<g><path style="opacity:1" fill="#fef011" d="M 54.5,9.5 C 45.5,9.5 36.5,9.5 27.5,9.5C 26.181,7.53163 26.181,5.53163 27.5,3.5C 37.1762,2.27409 46.8428,2.27409 56.5,3.5C 56.2865,5.14387 56.6198,6.64387 57.5,8C 56.2625,8.23209 55.2625,8.73209 54.5,9.5 Z"/></g>
<g><path style="opacity:1" fill="#f1cb1d" d="M 71.5,4.5 C 72.9663,5.347 73.7996,6.68034 74,8.5C 74.6667,16.5 74.6667,24.5 74,32.5C 73.3292,33.2524 72.4959,33.5858 71.5,33.5C 71.1667,33.5 70.8333,33.5 70.5,33.5C 70.2089,32.3509 69.3756,31.6842 68,31.5C 63.995,31.0081 60.1616,30.3414 56.5,29.5C 57.6497,24.6842 57.8163,19.6842 57,14.5C 55.4207,12.9588 53.5873,11.7922 51.5,11C 44.5079,10.5004 37.5079,10.3337 30.5,10.5C 28.4086,10.3184 26.4086,10.6518 24.5,11.5C 23.2267,10.7435 23.2267,10.0768 24.5,9.5C 25.5,9.5 26.5,9.5 27.5,9.5C 36.5,9.5 45.5,9.5 54.5,9.5C 56.8568,9.66331 59.1902,9.49665 61.5,9C 64.4952,3.28319 67.6618,3.11652 71,8.5C 71.49,7.20677 71.6567,5.87344 71.5,4.5 Z"/></g>
<g><path style="opacity:1" fill="#f5e84b" d="M 25.5,0.5 C 24.1667,1.16667 22.8333,1.83333 21.5,2.5C 17.4158,2.50888 14.0825,4.00888 11.5,7C 10.192,15.3759 10.192,23.7092 11.5,32C 10.9056,32.4643 10.2389,32.631 9.5,32.5C 8.34345,24.3437 8.17678,16.0104 9,7.5C 9.68532,4.94273 11.1853,3.1094 13.5,2C 17.3951,0.733751 21.3951,0.233751 25.5,0.5 Z"/></g>
<g><path style="opacity:1" fill="#fde30e" d="M 30.5,10.5 C 37.5079,10.3337 44.5079,10.5004 51.5,11C 53.5873,11.7922 55.4207,12.9588 57,14.5C 57.8163,19.6842 57.6497,24.6842 56.5,29.5C 56.1667,29.5 55.8333,29.5 55.5,29.5C 54.2231,26.36 54.2231,23.1933 55.5,20C 53.8028,12.2239 48.9694,9.39056 41,11.5C 37.8333,11.6667 34.6667,11.8333 31.5,12C 30.376,12.2492 29.376,12.7492 28.5,13.5C 26.8986,18.3075 26.232,23.6409 26.5,29.5C 25.8333,29.5 25.1667,29.5 24.5,29.5C 23.4498,24.8862 23.2832,20.2196 24,15.5C 25.7804,13.2059 27.9471,11.5392 30.5,10.5 Z"/></g>
<g><path style="opacity:1" fill="#fef011" d="M 55.5,29.5 C 45.8333,29.5 36.1667,29.5 26.5,29.5C 26.232,23.6409 26.8986,18.3075 28.5,13.5C 29.376,12.7492 30.376,12.2492 31.5,12C 34.6667,11.8333 37.8333,11.6667 41,11.5C 48.9694,9.39056 53.8028,12.2239 55.5,20C 54.2231,23.1933 54.2231,26.36 55.5,29.5 Z"/></g>
<g><path style="opacity:1" fill="#5d3a17" d="M 24.5,29.5 C 25.1667,29.5 25.8333,29.5 26.5,29.5C 36.1667,29.5 45.8333,29.5 55.5,29.5C 55.8333,29.5 56.1667,29.5 56.5,29.5C 60.1616,30.3414 63.995,31.0081 68,31.5C 69.3756,31.6842 70.2089,32.3509 70.5,33.5C 70.5,34.5 70.5,35.5 70.5,36.5C 69.5,36.5 68.5,36.5 67.5,36.5C 66.2436,36.9038 65.0769,37.5705 64,38.5C 61.2048,37.8148 58.3715,37.3148 55.5,37C 58.6946,36.8195 61.6946,36.3195 64.5,35.5C 65.675,35.719 66.675,35.3857 67.5,34.5C 50.1763,33.3337 32.8429,33.167 15.5,34C 14.2881,35.1068 14.6214,35.6068 16.5,35.5C 19.977,36.3227 23.6437,36.8227 27.5,37C 23.4517,37.3042 19.4517,37.8042 15.5,38.5C 15.1193,37.0689 14.1193,36.2355 12.5,36C 13.5981,35.2303 13.5981,34.397 12.5,33.5C 12.4142,32.5041 12.7476,31.6708 13.5,31C 17.3563,30.8227 21.023,30.3227 24.5,29.5 Z"/></g>
<g><path style="opacity:1" fill="#391e0f" d="M 64.5,35.5 C 48.4959,34.2309 32.4959,34.2309 16.5,35.5C 14.6214,35.6068 14.2881,35.1068 15.5,34C 32.8429,33.167 50.1763,33.3337 67.5,34.5C 66.675,35.3857 65.675,35.719 64.5,35.5 Z"/></g>
<g><path style="opacity:1" fill="#aa6429" d="M 64.5,35.5 C 61.6946,36.3195 58.6946,36.8195 55.5,37C 58.3715,37.3148 61.2048,37.8148 64,38.5C 65.0769,37.5705 66.2436,36.9038 67.5,36.5C 67.5,39.1667 67.5,41.8333 67.5,44.5C 66.8333,44.5 66.1667,44.5 65.5,44.5C 49.5,44.5 33.5,44.5 17.5,44.5C 16.5,44.5 15.5,44.5 14.5,44.5C 14.3253,42.3792 14.6586,40.3792 15.5,38.5C 19.4517,37.8042 23.4517,37.3042 27.5,37C 23.6437,36.8227 19.977,36.3227 16.5,35.5C 32.4959,34.2309 48.4959,34.2309 64.5,35.5 Z"/></g>
<g><path style="opacity:1" fill="#40230b" d="M 17.5,44.5 C 33.5,44.5 49.5,44.5 65.5,44.5C 64.9423,45.7899 63.9423,46.6232 62.5,47C 63.9733,47.7096 64.6399,48.8762 64.5,50.5C 63.1667,50.5 61.8333,50.5 60.5,50.5C 59.1667,50.5 57.8333,50.5 56.5,50.5C 45.1667,50.5 33.8333,50.5 22.5,50.5C 20.8333,50.5 19.1667,50.5 17.5,50.5C 17.5106,48.9826 18.1772,47.8159 19.5,47C 18.6195,46.2917 17.9528,45.4584 17.5,44.5 Z"/></g>
<g><path style="opacity:1" fill="#9a836d" d="M 11.5,33.5 C 11.8333,33.5 12.1667,33.5 12.5,33.5C 13.5981,34.397 13.5981,35.2303 12.5,36C 14.1193,36.2355 15.1193,37.0689 15.5,38.5C 14.6586,40.3792 14.3253,42.3792 14.5,44.5C 15.5,44.5 16.5,44.5 17.5,44.5C 17.9528,45.4584 18.6195,46.2917 19.5,47C 18.1772,47.8159 17.5106,48.9826 17.5,50.5C 9.13876,51.5279 4.4721,56.1945 3.5,64.5C 2.50838,64.3284 1.84171,64.6618 1.5,65.5C 0.526933,67.9479 0.1936,70.6146 0.5,73.5C 0.5,74.5 0.5,75.5 0.5,76.5C 0.166667,76.5 -0.166667,76.5 -0.5,76.5C -0.5,72.5 -0.5,68.5 -0.5,64.5C 1.10355,56.7096 5.60355,51.0429 13,47.5C 13.1667,45.8333 13.3333,44.1667 13.5,42.5C 12.9544,39.4344 12.2877,36.4344 11.5,33.5 Z"/></g>
<g><path style="opacity:1" fill="#43270f" d="M 56.5,50.5 C 57.8333,50.5 59.1667,50.5 60.5,50.5C 64.2258,52.6225 68.2258,54.4558 72.5,56C 75.5956,58.0287 77.2623,60.862 77.5,64.5C 72.5,64.5 67.5,64.5 62.5,64.5C 62.5,64.1667 62.5,63.8333 62.5,63.5C 61.0939,60.5865 59.0939,58.0865 56.5,56C 49.2392,54.652 41.9059,54.152 34.5,54.5C 32.7078,53.6909 30.7078,53.1909 28.5,53C 38.0626,52.9813 47.3959,52.1479 56.5,50.5 Z"/></g>
<g><path style="opacity:1" fill="#684f36" d="M 65.5,44.5 C 66.1667,44.5 66.8333,44.5 67.5,44.5C 67.0948,46.6498 66.5948,48.6498 66,50.5C 72.9956,52.8712 77.4956,57.5379 79.5,64.5C 78.8333,64.5 78.1667,64.5 77.5,64.5C 77.2623,60.862 75.5956,58.0287 72.5,56C 68.2258,54.4558 64.2258,52.6225 60.5,50.5C 61.8333,50.5 63.1667,50.5 64.5,50.5C 64.6399,48.8762 63.9733,47.7096 62.5,47C 63.9423,46.6232 64.9423,45.7899 65.5,44.5 Z"/></g>
<g><path style="opacity:1" fill="#47280e" d="M 22.5,50.5 C 33.8333,50.5 45.1667,50.5 56.5,50.5C 47.3959,52.1479 38.0626,52.9813 28.5,53C 30.7078,53.1909 32.7078,53.6909 34.5,54.5C 27.4653,54.0075 22.7986,57.0075 20.5,63.5C 20.5,63.8333 20.5,64.1667 20.5,64.5C 15.5,64.5 10.5,64.5 5.5,64.5C 7.46588,56.8804 12.4659,52.8804 20.5,52.5C 21.7133,52.2528 22.38,51.5862 22.5,50.5 Z"/></g>
<g><path style="opacity:1" fill="#957e65" d="M 70.5,33.5 C 70.8333,33.5 71.1667,33.5 71.5,33.5C 71.7254,35.7159 70.8921,37.3826 69,38.5C 68.3333,40.8333 68.3333,43.1667 69,45.5C 72.4235,49.0026 76.0901,52.3359 80,55.5C 81.5489,58.3117 82.3822,61.3117 82.5,64.5C 81.5,64.5 80.5,64.5 79.5,64.5C 77.4956,57.5379 72.9956,52.8712 66,50.5C 66.5948,48.6498 67.0948,46.6498 67.5,44.5C 67.5,41.8333 67.5,39.1667 67.5,36.5C 68.5,36.5 69.5,36.5 70.5,36.5C 70.5,35.5 70.5,34.5 70.5,33.5 Z"/></g>
<g><path style="opacity:1" fill="#573d26" d="M 34.5,54.5 C 41.9059,54.152 49.2392,54.652 56.5,56C 59.0939,58.0865 61.0939,60.5865 62.5,63.5C 61.0222,63.762 59.6888,63.4287 58.5,62.5C 57.3147,61.147 55.9814,59.9803 54.5,59C 46.1809,57.1972 37.8475,57.1972 29.5,59C 26.5819,60.7733 23.5819,62.2733 20.5,63.5C 22.7986,57.0075 27.4653,54.0075 34.5,54.5 Z"/></g>
<g><path style="opacity:1" fill="#6b4e36" d="M 17.5,50.5 C 19.1667,50.5 20.8333,50.5 22.5,50.5C 22.38,51.5862 21.7133,52.2528 20.5,52.5C 12.4659,52.8804 7.46588,56.8804 5.5,64.5C 4.83333,64.5 4.16667,64.5 3.5,64.5C 4.4721,56.1945 9.13876,51.5279 17.5,50.5 Z"/></g>
<g><path style="opacity:1" fill="#624a35" d="M 62.5,63.5 C 62.5,63.8333 62.5,64.1667 62.5,64.5C 48.5,64.5 34.5,64.5 20.5,64.5C 20.5,64.1667 20.5,63.8333 20.5,63.5C 23.5819,62.2733 26.5819,60.7733 29.5,59C 37.8475,57.1972 46.1809,57.1972 54.5,59C 55.9814,59.9803 57.3147,61.147 58.5,62.5C 59.6888,63.4287 61.0222,63.762 62.5,63.5 Z"/></g>
<g><path style="opacity:1" fill="#216799" d="M 3.5,64.5 C 4.16667,64.5 4.83333,64.5 5.5,64.5C 10.5,64.5 15.5,64.5 20.5,64.5C 34.5,64.5 48.5,64.5 62.5,64.5C 68.6534,65.3279 74.9867,65.8279 81.5,66C 78.854,66.4974 76.1873,66.6641 73.5,66.5C 71.1667,66.5 68.8333,66.5 66.5,66.5C 48.5,66.5 30.5,66.5 12.5,66.5C 8.62859,66.815 4.96192,66.4816 1.5,65.5C 1.84171,64.6618 2.50838,64.3284 3.5,64.5 Z"/></g>
<g><path style="opacity:1" fill="#33405b" d="M 62.5,64.5 C 67.5,64.5 72.5,64.5 77.5,64.5C 78.1667,64.5 78.8333,64.5 79.5,64.5C 80.5,64.5 81.5,64.5 82.5,64.5C 82.5,67.1667 82.5,69.8333 82.5,72.5C 82.1667,72.5 81.8333,72.5 81.5,72.5C 79.3647,70.631 76.6981,69.9644 73.5,70.5C 73.5,69.8333 73.8333,69.5 74.5,69.5C 83.8333,68.8333 83.8333,68.1667 74.5,67.5C 73.8333,67.5 73.5,67.1667 73.5,66.5C 76.1873,66.6641 78.854,66.4974 81.5,66C 74.9867,65.8279 68.6534,65.3279 62.5,64.5 Z"/></g>
<g><path style="opacity:1" fill="#425d6c" d="M 1.5,65.5 C 4.96192,66.4816 8.62859,66.815 12.5,66.5C 12.8333,67.1667 13.1667,67.8333 13.5,68.5C 10.4816,68.3354 7.48162,68.502 4.5,69C 6.92037,69.2904 9.2537,69.7904 11.5,70.5C 11.5,71.1667 11.5,71.8333 11.5,72.5C 8.9407,72.1984 6.60737,72.5318 4.5,73.5C 3.69088,71.7078 3.19088,69.7078 3,67.5C 2.50258,70.146 2.33591,72.8127 2.5,75.5C 1.83333,74.8333 1.16667,74.1667 0.5,73.5C 0.1936,70.6146 0.526933,67.9479 1.5,65.5 Z"/></g>
<g><path style="opacity:1" fill="#717a5b" d="M 74.5,67.5 C 83.8333,68.1667 83.8333,68.8333 74.5,69.5C 74.5,69.1667 74.5,68.8333 74.5,68.5C 74.5,68.1667 74.5,67.8333 74.5,67.5 Z"/></g>
<g><path style="opacity:1" fill="#2b84a6" d="M 12.5,66.5 C 30.5,66.5 48.5,66.5 66.5,66.5C 59.8483,67.6197 53.1817,68.6197 46.5,69.5C 43.6618,71.3059 43.9952,72.3059 47.5,72.5C 46.4324,73.4345 45.099,73.7678 43.5,73.5C 42.8288,72.1529 42.8288,70.9862 43.5,70C 42.0406,70.3554 40.7072,70.1888 39.5,69.5C 37.4482,70.0527 37.1148,71.0527 38.5,72.5C 38.5,72.8333 38.5,73.1667 38.5,73.5C 37.8333,73.5 37.5,73.8333 37.5,74.5C 36.8333,74.5 36.1667,74.5 35.5,74.5C 34.1667,72.8333 32.8333,71.1667 31.5,69.5C 28.5995,69.2796 25.9329,69.9462 23.5,71.5C 24.8333,71.8333 26.1667,72.1667 27.5,72.5C 28.1924,71.9747 28.6924,71.3081 29,70.5C 29.2784,71.4158 29.7784,72.0825 30.5,72.5C 26.1667,73.8333 21.8333,73.8333 17.5,72.5C 20.1667,71.8333 20.1667,71.1667 17.5,70.5C 16.8166,68.8235 15.4832,68.1568 13.5,68.5C 13.1667,67.8333 12.8333,67.1667 12.5,66.5 Z"/></g>
<g><path style="opacity:1" fill="#296a92" d="M 66.5,66.5 C 68.8333,66.5 71.1667,66.5 73.5,66.5C 73.5,67.1667 73.8333,67.5 74.5,67.5C 74.5,67.8333 74.5,68.1667 74.5,68.5C 72.901,68.2322 71.5676,68.5655 70.5,69.5C 68.8333,69.5 67.1667,69.5 65.5,69.5C 64.596,70.209 64.2627,71.209 64.5,72.5C 64.1667,72.5 63.8333,72.5 63.5,72.5C 60.8333,73.8333 58.1667,73.8333 55.5,72.5C 56.8847,71.6977 56.718,71.0311 55,70.5C 53.282,71.0311 53.1153,71.6977 54.5,72.5C 53.5,73.8333 52.5,73.8333 51.5,72.5C 52.404,71.791 52.7373,70.791 52.5,69.5C 50.3881,70.2751 48.3881,70.2751 46.5,69.5C 53.1817,68.6197 59.8483,67.6197 66.5,66.5 Z"/></g>
<g><path style="opacity:1" fill="#94c66c" d="M 39.5,69.5 C 39.7373,70.791 39.404,71.791 38.5,72.5C 37.1148,71.0527 37.4482,70.0527 39.5,69.5 Z"/></g>
<g><path style="opacity:1" fill="#b7d25a" d="M 55.5,72.5 C 55.1667,72.5 54.8333,72.5 54.5,72.5C 53.1153,71.6977 53.282,71.0311 55,70.5C 56.718,71.0311 56.8847,71.6977 55.5,72.5 Z"/></g>
<g><path style="opacity:1" fill="#a5a45a" d="M 4.5,73.5 C 4.5,73.8333 4.5,74.1667 4.5,74.5C 4.15829,75.3382 3.49162,75.6716 2.5,75.5C 2.33591,72.8127 2.50258,70.146 3,67.5C 3.19088,69.7078 3.69088,71.7078 4.5,73.5 Z"/></g>
<g><path style="opacity:1" fill="#7b9b6b" d="M 11.5,72.5 C 11.5,71.8333 11.5,71.1667 11.5,70.5C 12.9187,69.5489 14.5853,69.2155 16.5,69.5C 16.5,70.5 16.5,71.5 16.5,72.5C 14.8333,72.5 13.1667,72.5 11.5,72.5 Z"/></g>
<g><path style="opacity:1" fill="#a6d36d" d="M 34.5,69.5 C 36.4646,69.9483 36.7979,70.9483 35.5,72.5C 34.6143,71.675 34.281,70.675 34.5,69.5 Z"/></g>
<g><path style="opacity:1" fill="#81b278" d="M 46.5,69.5 C 48.3881,70.2751 50.3881,70.2751 52.5,69.5C 52.7373,70.791 52.404,71.791 51.5,72.5C 50.1667,73.8333 48.8333,73.8333 47.5,72.5C 43.9952,72.3059 43.6618,71.3059 46.5,69.5 Z"/></g>
<g><path style="opacity:1" fill="#89af6c" d="M 57.5,69.5 C 59.4646,69.9483 59.7979,70.9483 58.5,72.5C 57.6143,71.675 57.281,70.675 57.5,69.5 Z"/></g>
<g><path style="opacity:1" fill="#87aa5b" d="M 63.5,72.5 C 62.325,72.719 61.325,72.3857 60.5,71.5C 62.0517,70.2021 63.0517,70.5354 63.5,72.5 Z"/></g>
<g><path style="opacity:1" fill="#9cb865" d="M 65.5,69.5 C 66.1098,70.391 66.4431,71.391 66.5,72.5C 65.8333,72.5 65.1667,72.5 64.5,72.5C 64.2627,71.209 64.596,70.209 65.5,69.5 Z"/></g>
<g><path style="opacity:1" fill="#58766a" d="M 65.5,69.5 C 67.1667,69.5 68.8333,69.5 70.5,69.5C 71.7759,70.3864 71.7759,71.3864 70.5,72.5C 69.2736,71.6371 67.9403,71.6371 66.5,72.5C 66.4431,71.391 66.1098,70.391 65.5,69.5 Z"/></g>
<g><path style="opacity:1" fill="#787f5a" d="M 73.5,70.5 C 76.6981,69.9644 79.3647,70.631 81.5,72.5C 79.3881,71.7249 77.3881,71.7249 75.5,72.5C 74.1667,72.5 73.5,71.8333 73.5,70.5 Z"/></g>
<g><path style="opacity:1" fill="#57a295" d="M 39.5,69.5 C 40.7072,70.1888 42.0406,70.3554 43.5,70C 42.8288,70.9862 42.8288,72.1529 43.5,73.5C 41.8333,73.5 40.1667,73.5 38.5,73.5C 38.5,73.1667 38.5,72.8333 38.5,72.5C 39.404,71.791 39.7373,70.791 39.5,69.5 Z"/></g>
<g><path style="opacity:1" fill="#1b5e98" d="M 13.5,68.5 C 15.4832,68.1568 16.8166,68.8235 17.5,70.5C 17.5,71.1667 17.5,71.8333 17.5,72.5C 21.8333,73.8333 26.1667,73.8333 30.5,72.5C 31.404,71.791 31.7373,70.791 31.5,69.5C 32.8333,71.1667 34.1667,72.8333 35.5,74.5C 34.4324,75.4345 33.099,75.7678 31.5,75.5C 22.6822,74.5067 13.6822,74.1734 4.5,74.5C 4.5,74.1667 4.5,73.8333 4.5,73.5C 6.60737,72.5318 8.9407,72.1984 11.5,72.5C 13.1667,72.5 14.8333,72.5 16.5,72.5C 16.5,71.5 16.5,70.5 16.5,69.5C 14.5853,69.2155 12.9187,69.5489 11.5,70.5C 9.2537,69.7904 6.92037,69.2904 4.5,69C 7.48162,68.502 10.4816,68.3354 13.5,68.5 Z"/></g>
<g><path style="opacity:1" fill="#6aa581" d="M 31.5,69.5 C 31.7373,70.791 31.404,71.791 30.5,72.5C 29.7784,72.0825 29.2784,71.4158 29,70.5C 28.6924,71.3081 28.1924,71.9747 27.5,72.5C 26.1667,72.1667 24.8333,71.8333 23.5,71.5C 25.9329,69.9462 28.5995,69.2796 31.5,69.5 Z"/></g>
<g><path style="opacity:1" fill="#93b577" d="M 17.5,70.5 C 20.1667,71.1667 20.1667,71.8333 17.5,72.5C 17.5,71.8333 17.5,71.1667 17.5,70.5 Z"/></g>
<g><path style="opacity:1" fill="#27538a" d="M 70.5,69.5 C 71.5676,68.5655 72.901,68.2322 74.5,68.5C 74.5,68.8333 74.5,69.1667 74.5,69.5C 73.8333,69.5 73.5,69.8333 73.5,70.5C 73.5,71.8333 74.1667,72.5 75.5,72.5C 67.5602,74.308 59.2268,75.1413 50.5,75C 60.828,75.4998 71.1613,75.6665 81.5,75.5C 81.5,74.5 81.5,73.5 81.5,72.5C 81.8333,72.5 82.1667,72.5 82.5,72.5C 82.5,73.8333 82.5,75.1667 82.5,76.5C 72.6522,76.1729 62.9856,76.5062 53.5,77.5C 52.2921,76.7659 50.9587,76.4326 49.5,76.5C 45.8171,74.7501 41.8171,74.0834 37.5,74.5C 37.5,73.8333 37.8333,73.5 38.5,73.5C 40.1667,73.5 41.8333,73.5 43.5,73.5C 45.099,73.7678 46.4324,73.4345 47.5,72.5C 48.8333,73.8333 50.1667,73.8333 51.5,72.5C 52.5,73.8333 53.5,73.8333 54.5,72.5C 54.8333,72.5 55.1667,72.5 55.5,72.5C 58.1667,73.8333 60.8333,73.8333 63.5,72.5C 63.8333,72.5 64.1667,72.5 64.5,72.5C 65.1667,72.5 65.8333,72.5 66.5,72.5C 67.9403,71.6371 69.2736,71.6371 70.5,72.5C 71.7759,71.3864 71.7759,70.3864 70.5,69.5 Z"/></g>
<g><path style="opacity:1" fill="#506f7d" d="M 81.5,72.5 C 81.5,73.5 81.5,74.5 81.5,75.5C 71.1613,75.6665 60.828,75.4998 50.5,75C 59.2268,75.1413 67.5602,74.308 75.5,72.5C 77.3881,71.7249 79.3881,71.7249 81.5,72.5 Z"/></g>
<g><path style="opacity:1" fill="#29618b" d="M 0.5,73.5 C 1.16667,74.1667 1.83333,74.8333 2.5,75.5C 3.49162,75.6716 4.15829,75.3382 4.5,74.5C 13.6822,74.1734 22.6822,74.5067 31.5,75.5C 31.1667,76.1667 30.8333,76.8333 30.5,77.5C 30.1667,77.5 29.8333,77.5 29.5,77.5C 20.0144,76.5062 10.3478,76.1729 0.5,76.5C 0.5,75.5 0.5,74.5 0.5,73.5 Z"/></g>
<g><path style="opacity:1" fill="#c31f28" d="M 35.5,74.5 C 36.1667,74.5 36.8333,74.5 37.5,74.5C 41.8171,74.0834 45.8171,74.7501 49.5,76.5C 51.3162,78.1366 53.3162,79.6366 55.5,81C 60.6835,81.1739 65.6835,81.6739 70.5,82.5C 67.7718,82.1706 65.4385,82.8372 63.5,84.5C 63.1898,86.1436 62.1898,87.1436 60.5,87.5C 59.8333,87.5 59.1667,87.5 58.5,87.5C 57.6868,86.3473 56.6868,86.3473 55.5,87.5C 54.2888,86.7261 54.2888,85.8928 55.5,85C 52.6998,85.0004 51.0331,86.5004 50.5,89.5C 49.5489,88.0813 49.2155,86.4147 49.5,84.5C 48.5,84.5 47.5,84.5 46.5,84.5C 46.4828,86.5648 46.1495,88.5648 45.5,90.5C 44.6618,90.1583 44.3284,89.4916 44.5,88.5C 44.3893,87.8826 44.056,87.3826 43.5,87C 40.633,86.1993 37.9664,86.3659 35.5,87.5C 34.3478,86.375 33.3478,86.375 32.5,87.5C 32.6882,89.1033 32.1882,90.4366 31,91.5C 31.4356,86.0502 29.6022,84.7168 25.5,87.5C 25.1667,87.5 24.8333,87.5 24.5,87.5C 23.791,86.596 22.791,86.2627 21.5,86.5C 21.6399,84.8762 20.9733,83.7096 19.5,83C 24.2906,83.1071 27.9572,81.2737 30.5,77.5C 30.8333,76.8333 31.1667,76.1667 31.5,75.5C 33.099,75.7678 34.4324,75.4345 35.5,74.5 Z"/></g>
<g><path style="opacity:1" fill="#9e5a22" d="M 43.5,76.5 C 45.1436,76.8102 46.1436,77.8102 46.5,79.5C 45.1667,79.5 43.8333,79.5 42.5,79.5C 43.1098,78.609 43.4431,77.609 43.5,76.5 Z"/></g>
<g><path style="opacity:1" fill="#f5c628" d="M 6.5,77.5 C 13.5,77.5 20.5,77.5 27.5,77.5C 27.0472,78.4584 26.3805,79.2917 25.5,80C 20.5111,80.4993 15.5111,80.6659 10.5,80.5C 10.5,85.1667 10.5,89.8333 10.5,94.5C 9.16667,98.1667 7.83333,101.833 6.5,105.5C 6.5,96.1667 6.5,86.8333 6.5,77.5 Z"/></g>
<g><path style="opacity:1" fill="#90b02f" d="M 43.5,76.5 C 43.4431,77.609 43.1098,78.609 42.5,79.5C 43.8333,79.5 45.1667,79.5 46.5,79.5C 48.3084,79.4914 49.9751,79.9914 51.5,81C 48.7558,81.8035 46.0891,82.8035 43.5,84C 38.931,84.5588 34.5976,84.0588 30.5,82.5C 32.2554,81.9278 33.9221,81.0945 35.5,80C 34.5842,79.7216 33.9175,79.2216 33.5,78.5C 36.6297,76.9774 39.963,76.3107 43.5,76.5 Z"/></g>
<g><path style="opacity:1" fill="#e0ad17" d="M 6.5,77.5 C 6.5,86.8333 6.5,96.1667 6.5,105.5C 6.16667,105.5 5.83333,105.5 5.5,105.5C 2.22055,106.031 0.88722,108.031 1.5,111.5C 1.5,113.167 1.5,114.833 1.5,116.5C 1.62867,118.216 1.962,119.883 2.5,121.5C 1.83558,124.146 1.50224,126.979 1.5,130C 1.28965,134.057 1.95631,137.891 3.5,141.5C 6.78809,142.099 9.78809,143.432 12.5,145.5C 8.2728,145.256 4.2728,144.256 0.5,142.5C 0.5,120.833 0.5,99.1667 0.5,77.5C 2.5,77.5 4.5,77.5 6.5,77.5 Z"/></g>
<g><path style="opacity:1" fill="#9f3332" d="M 49.5,76.5 C 50.9587,76.4326 52.2921,76.7659 53.5,77.5C 53.8333,77.5 54.1667,77.5 54.5,77.5C 54.9528,78.4584 55.6195,79.2917 56.5,80C 61.4889,80.4993 66.4889,80.6659 71.5,80.5C 71.8214,86.0262 71.4881,91.3595 70.5,96.5C 67.8333,96.5 65.1667,96.5 62.5,96.5C 61.1667,96.5 59.8333,96.5 58.5,96.5C 55.8333,96.5 53.1667,96.5 50.5,96.5C 42.8333,96.5 35.1667,96.5 27.5,96.5C 26.8333,96.5 26.1667,96.5 25.5,96.5C 22.5,96.5 19.5,96.5 16.5,96.5C 15.1667,96.5 13.8333,96.5 12.5,96.5C 11.5,96.1667 10.8333,95.5 10.5,94.5C 10.5,89.8333 10.5,85.1667 10.5,80.5C 15.5111,80.6659 20.5111,80.4993 25.5,80C 26.3805,79.2917 27.0472,78.4584 27.5,77.5C 28.1667,77.5 28.8333,77.5 29.5,77.5C 29.8333,77.5 30.1667,77.5 30.5,77.5C 27.9572,81.2737 24.2906,83.1071 19.5,83C 20.9733,83.7096 21.6399,84.8762 21.5,86.5C 20.6587,87.0093 20.1587,86.3427 20,84.5C 18.6532,88.375 17.4865,88.375 16.5,84.5C 15.2711,86.923 14.2711,89.423 13.5,92C 13.8333,92.1667 14.1667,92.3333 14.5,92.5C 15.2811,91.2713 15.7811,89.938 16,88.5C 16.7559,91.7924 18.5893,92.7924 21.5,91.5C 18.7709,89.6329 19.1043,88.6329 22.5,88.5C 22.3433,89.8734 22.51,91.2068 23,92.5C 24.0086,90.9751 24.5086,89.3084 24.5,87.5C 24.8333,87.5 25.1667,87.5 25.5,87.5C 25.4646,93.9604 26.2979,93.9604 28,87.5C 28.4935,89.1341 28.6602,90.8008 28.5,92.5C 33.0274,92.9949 34.3607,91.3282 32.5,87.5C 33.3478,86.375 34.3478,86.375 35.5,87.5C 34.7822,89.1368 34.6155,90.8034 35,92.5C 35.3826,91.944 35.8826,91.6107 36.5,91.5C 35.8478,92.7251 34.6811,93.3917 33,93.5C 29.5,94 26,94.5 22.5,95C 38.672,95.8281 54.672,95.6614 70.5,94.5C 70.5,90.5 70.5,86.5 70.5,82.5C 65.6835,81.6739 60.6835,81.1739 55.5,81C 53.3162,79.6366 51.3162,78.1366 49.5,76.5 Z"/></g>
<g><path style="opacity:1" fill="#8a202d" d="M 70.5,82.5 C 70.5,86.5 70.5,90.5 70.5,94.5C 65.4889,94.6659 60.4889,94.4993 55.5,94C 53.9419,93.79 52.6085,93.29 51.5,92.5C 53.451,92.7733 54.951,92.1066 56,90.5C 56.3076,91.3081 56.8076,91.9747 57.5,92.5C 58.4519,90.9547 58.7852,89.288 58.5,87.5C 59.1667,87.5 59.8333,87.5 60.5,87.5C 59.6993,89.0418 59.366,90.7085 59.5,92.5C 62.1873,92.6641 64.854,92.4974 67.5,92C 66.8333,91.6667 66.1667,91.3333 65.5,91C 67.4386,90.0922 68.4386,88.5922 68.5,86.5C 66.6776,86.1692 65.0109,85.5025 63.5,84.5C 65.4385,82.8372 67.7718,82.1706 70.5,82.5 Z"/></g>
<g><path style="opacity:1" fill="#d5abab" d="M 32.5,87.5 C 34.3607,91.3282 33.0274,92.9949 28.5,92.5C 28.6602,90.8008 28.4935,89.1341 28,87.5C 26.2979,93.9604 25.4646,93.9604 25.5,87.5C 29.6022,84.7168 31.4356,86.0502 31,91.5C 32.1882,90.4366 32.6882,89.1033 32.5,87.5 Z"/></g>
<g><path style="opacity:1" fill="#c58f91" d="M 58.5,87.5 C 58.7852,89.288 58.4519,90.9547 57.5,92.5C 56.8076,91.9747 56.3076,91.3081 56,90.5C 54.951,92.1066 53.451,92.7733 51.5,92.5C 51.5394,91.4168 51.8728,90.4168 52.5,89.5C 52.0302,88.537 51.3635,88.537 50.5,89.5C 51.0331,86.5004 52.6998,85.0004 55.5,85C 54.2888,85.8928 54.2888,86.7261 55.5,87.5C 56.6868,86.3473 57.6868,86.3473 58.5,87.5 Z"/></g>
<g><path style="opacity:1" fill="#ce8c8e" d="M 44.5,88.5 C 43.1851,89.4756 41.8518,90.4756 40.5,91.5C 41.5063,92.3957 41.5063,93.0623 40.5,93.5C 39.0653,92.1763 38.0653,90.5096 37.5,88.5C 36.6143,89.325 36.281,90.325 36.5,91.5C 35.8826,91.6107 35.3826,91.944 35,92.5C 34.6155,90.8034 34.7822,89.1368 35.5,87.5C 37.9664,86.3659 40.633,86.1993 43.5,87C 44.056,87.3826 44.3893,87.8826 44.5,88.5 Z"/></g>
<g><path style="opacity:1" fill="#dcb2b3" d="M 50.5,89.5 C 49.5627,93.4301 48.5627,93.4301 47.5,89.5C 46.8333,90.8333 46.1667,92.1667 45.5,93.5C 44.4376,92.5754 44.4376,91.5754 45.5,90.5C 46.1495,88.5648 46.4828,86.5648 46.5,84.5C 47.5,84.5 48.5,84.5 49.5,84.5C 49.2155,86.4147 49.5489,88.0813 50.5,89.5 Z"/></g>
<g><path style="opacity:1" fill="#ca9ea0" d="M 21.5,86.5 C 22.791,86.2627 23.791,86.596 24.5,87.5C 24.5086,89.3084 24.0086,90.9751 23,92.5C 22.51,91.2068 22.3433,89.8734 22.5,88.5C 19.1043,88.6329 18.7709,89.6329 21.5,91.5C 18.5893,92.7924 16.7559,91.7924 16,88.5C 15.7811,89.938 15.2811,91.2713 14.5,92.5C 14.1667,92.3333 13.8333,92.1667 13.5,92C 14.2711,89.423 15.2711,86.923 16.5,84.5C 17.4865,88.375 18.6532,88.375 20,84.5C 20.1587,86.3427 20.6587,87.0093 21.5,86.5 Z"/></g>
<g><path style="opacity:1" fill="#bb8a8c" d="M 63.5,84.5 C 65.0109,85.5025 66.6776,86.1692 68.5,86.5C 68.4386,88.5922 67.4386,90.0922 65.5,91C 66.1667,91.3333 66.8333,91.6667 67.5,92C 64.854,92.4974 62.1873,92.6641 59.5,92.5C 59.366,90.7085 59.6993,89.0418 60.5,87.5C 62.1898,87.1436 63.1898,86.1436 63.5,84.5 Z"/></g>
<g><path style="opacity:1" fill="#7f441b" d="M 42.5,79.5 C 42.1575,81.2252 41.1575,81.7252 39.5,81C 40.2438,79.9614 41.2438,79.4614 42.5,79.5 Z"/></g>
<g><path style="opacity:1" fill="#a67227" d="M 33.5,78.5 C 33.9175,79.2216 34.5842,79.7216 35.5,80C 33.9221,81.0945 32.2554,81.9278 30.5,82.5C 30.7376,80.5956 31.7376,79.2623 33.5,78.5 Z"/></g>
<g><path style="opacity:1" fill="#b62533" d="M 44.5,88.5 C 44.3284,89.4916 44.6618,90.1583 45.5,90.5C 44.4376,91.5754 44.4376,92.5754 45.5,93.5C 46.1667,92.1667 46.8333,90.8333 47.5,89.5C 48.5627,93.4301 49.5627,93.4301 50.5,89.5C 51.3635,88.537 52.0302,88.537 52.5,89.5C 51.8728,90.4168 51.5394,91.4168 51.5,92.5C 52.6085,93.29 53.9419,93.79 55.5,94C 60.4889,94.4993 65.4889,94.6659 70.5,94.5C 54.672,95.6614 38.672,95.8281 22.5,95C 26,94.5 29.5,94 33,93.5C 34.6811,93.3917 35.8478,92.7251 36.5,91.5C 36.281,90.325 36.6143,89.325 37.5,88.5C 38.0653,90.5096 39.0653,92.1763 40.5,93.5C 41.5063,93.0623 41.5063,92.3957 40.5,91.5C 41.8518,90.4756 43.1851,89.4756 44.5,88.5 Z"/></g>
<g><path style="opacity:1" fill="#f6cb41" d="M 10.5,94.5 C 10.8333,95.5 11.5,96.1667 12.5,96.5C 12.3338,102.509 12.5005,108.509 13,114.5C 13.3248,117.522 14.8248,119.522 17.5,120.5C 14.1667,120.167 10.8333,119.833 7.5,119.5C 9.28211,114.414 8.61544,109.748 5.5,105.5C 5.83333,105.5 6.16667,105.5 6.5,105.5C 7.83333,101.833 9.16667,98.1667 10.5,94.5 Z"/></g>
<g><path style="opacity:1" fill="#deb020" d="M 70.5,77.5 C 74.2733,77.2633 77.9399,77.7633 81.5,79C 80.9535,79.9246 80.2868,80.7579 79.5,81.5C 79.1667,86.8333 78.8333,92.1667 78.5,97.5C 78.5264,103.246 79.1931,108.746 80.5,114C 80.1667,114.333 79.8333,114.667 79.5,115C 80.448,115.483 81.448,115.649 82.5,115.5C 82.5,124.5 82.5,133.5 82.5,142.5C 78.5489,143.714 74.5489,144.714 70.5,145.5C 70.1667,145.5 69.8333,145.5 69.5,145.5C 69.6107,144.883 69.944,144.383 70.5,144C 66.8484,143.501 63.1817,143.335 59.5,143.5C 63.9819,142.674 68.6486,142.174 73.5,142C 75.8884,141.697 78.0551,140.863 80,139.5C 81.3844,132.589 81.8844,125.589 81.5,118.5C 79.8333,118.5 78.1667,118.5 76.5,118.5C 75.3509,118.209 74.6842,117.376 74.5,116C 75.5401,113.263 76.2067,110.429 76.5,107.5C 75.5795,98.469 74.4128,89.469 73,80.5C 72.3021,79.3094 71.4687,78.3094 70.5,77.5 Z"/></g>
<g><path style="opacity:1" fill="#af8129" d="M 53.5,77.5 C 62.9856,76.5062 72.6522,76.1729 82.5,76.5C 82.5,89.5 82.5,102.5 82.5,115.5C 81.448,115.649 80.448,115.483 79.5,115C 79.8333,114.667 80.1667,114.333 80.5,114C 79.1931,108.746 78.5264,103.246 78.5,97.5C 78.8333,92.1667 79.1667,86.8333 79.5,81.5C 80.2868,80.7579 80.9535,79.9246 81.5,79C 77.9399,77.7633 74.2733,77.2633 70.5,77.5C 65.1667,77.5 59.8333,77.5 54.5,77.5C 54.1667,77.5 53.8333,77.5 53.5,77.5 Z"/></g>
<g><path style="opacity:1" fill="#fddc56" d="M 12.5,96.5 C 13.8333,96.5 15.1667,96.5 16.5,96.5C 16.1725,101.544 16.5059,106.544 17.5,111.5C 18.5722,114.204 19.5722,116.87 20.5,119.5C 21.791,119.263 22.791,119.596 23.5,120.5C 21.5,120.5 19.5,120.5 17.5,120.5C 14.8248,119.522 13.3248,117.522 13,114.5C 12.5005,108.509 12.3338,102.509 12.5,96.5 Z"/></g>
<g><path style="opacity:1" fill="#efc334" d="M 54.5,77.5 C 59.8333,77.5 65.1667,77.5 70.5,77.5C 71.4687,78.3094 72.3021,79.3094 73,80.5C 74.4128,89.469 75.5795,98.469 76.5,107.5C 76.2067,110.429 75.5401,113.263 74.5,116C 74.6842,117.376 75.3509,118.209 76.5,118.5C 76.5,118.833 76.5,119.167 76.5,119.5C 76.1667,119.5 75.8333,119.5 75.5,119.5C 72.8333,119.5 70.1667,119.5 67.5,119.5C 66.6562,117.481 67.3229,115.815 69.5,114.5C 70.4959,108.537 70.8293,102.537 70.5,96.5C 71.4881,91.3595 71.8214,86.0262 71.5,80.5C 66.4889,80.6659 61.4889,80.4993 56.5,80C 55.6195,79.2917 54.9528,78.4584 54.5,77.5 Z"/></g>
<g><path style="opacity:1" fill="#fcf598" d="M 25.5,96.5 C 26.1667,96.5 26.8333,96.5 27.5,96.5C 29.2922,97.3091 31.2922,97.8091 33.5,98C 31.9419,98.21 30.6085,98.71 29.5,99.5C 28.6236,99.3691 27.9569,99.7025 27.5,100.5C 29.0777,101.298 30.7444,101.798 32.5,102C 30.1804,104.478 28.5137,107.311 27.5,110.5C 28.7175,111.161 30.0508,111.828 31.5,112.5C 31.9943,114.026 32.661,115.359 33.5,116.5C 37.6344,117.485 41.9677,117.818 46.5,117.5C 47.5,117.5 48.5,117.5 49.5,117.5C 49.5,116.167 49.5,114.833 49.5,113.5C 50.4475,112.022 51.7809,111.022 53.5,110.5C 53.8333,110.5 54.1667,110.5 54.5,110.5C 55.7251,109.848 56.3917,108.681 56.5,107C 56.3333,105.833 56.1667,104.667 56,103.5C 54.1478,101.043 52.3144,98.7093 50.5,96.5C 53.1667,96.5 55.8333,96.5 58.5,96.5C 59.2947,101.149 59.4614,105.816 59,110.5C 56.9195,114.25 53.9195,116.916 50,118.5C 49.5357,119.094 49.369,119.761 49.5,120.5C 48.609,121.11 47.609,121.443 46.5,121.5C 39.3774,120.172 32.2107,118.505 25,116.5C 23.3324,109.818 23.4991,103.151 25.5,96.5 Z"/></g>
<g><path style="opacity:1" fill="#964a31" d="M 29.5,99.5 C 31.5,99.5 33.5,99.5 35.5,99.5C 34.2347,102.525 32.568,105.358 30.5,108C 32.2556,108.202 33.9223,108.702 35.5,109.5C 32.9135,110.48 30.2469,110.813 27.5,110.5C 28.5137,107.311 30.1804,104.478 32.5,102C 30.7444,101.798 29.0777,101.298 27.5,100.5C 27.9569,99.7025 28.6236,99.3691 29.5,99.5 Z"/></g>
<g><path style="opacity:1" fill="#fbd653" d="M 62.5,96.5 C 65.1667,96.5 67.8333,96.5 70.5,96.5C 70.8293,102.537 70.4959,108.537 69.5,114.5C 67.3229,115.815 66.6562,117.481 67.5,119.5C 64.8127,119.664 62.146,119.497 59.5,119C 61.1233,116.92 62.6233,114.754 64,112.5C 64.7517,107.019 64.2517,101.685 62.5,96.5 Z"/></g>
<g><path style="opacity:1" fill="#fbf4a9" d="M 27.5,96.5 C 35.1667,96.5 42.8333,96.5 50.5,96.5C 52.3144,98.7093 54.1478,101.043 56,103.5C 56.1667,104.667 56.3333,105.833 56.5,107C 56.3917,108.681 55.7251,109.848 54.5,110.5C 53.8166,108.824 52.4832,108.157 50.5,108.5C 50.5,107.167 50.5,105.833 50.5,104.5C 55.6294,104.281 55.6294,103.614 50.5,102.5C 48.1405,100.344 45.4738,100.01 42.5,101.5C 40.223,100.522 37.8897,99.8551 35.5,99.5C 33.5,99.5 31.5,99.5 29.5,99.5C 30.6085,98.71 31.9419,98.21 33.5,98C 31.2922,97.8091 29.2922,97.3091 27.5,96.5 Z"/></g>
<g><path style="opacity:1" fill="#9d9254" d="M 5.5,105.5 C 8.61544,109.748 9.28211,114.414 7.5,119.5C 6.36465,121.213 4.69798,121.88 2.5,121.5C 1.962,119.883 1.62867,118.216 1.5,116.5C 4.49493,119.347 6.49493,118.681 7.5,114.5C 7.39184,113.558 7.05851,112.725 6.5,112C 4.86586,111.506 3.19919,111.34 1.5,111.5C 0.88722,108.031 2.22055,106.031 5.5,105.5 Z"/></g>
<g><path style="opacity:1" fill="#9a4e34" d="M 50.5,102.5 C 55.6294,103.614 55.6294,104.281 50.5,104.5C 50.5,105.833 50.5,107.167 50.5,108.5C 52.4832,108.157 53.8166,108.824 54.5,110.5C 54.1667,110.5 53.8333,110.5 53.5,110.5C 48.9315,110.917 47.4315,108.917 49,104.5C 49.7172,103.956 50.2172,103.289 50.5,102.5 Z"/></g>
<g><path style="opacity:1" fill="#f5edb4" d="M 35.5,99.5 C 37.8897,99.8551 40.223,100.522 42.5,101.5C 45.4738,100.01 48.1405,100.344 50.5,102.5C 50.2172,103.289 49.7172,103.956 49,104.5C 47.4315,108.917 48.9315,110.917 53.5,110.5C 51.7809,111.022 50.4475,112.022 49.5,113.5C 46.5,113.5 43.5,113.5 40.5,113.5C 40.5,114.5 40.5,115.5 40.5,116.5C 42.1238,116.64 43.2904,115.973 44,114.5C 44.6979,115.691 45.5313,116.691 46.5,117.5C 41.9677,117.818 37.6344,117.485 33.5,116.5C 32.661,115.359 31.9943,114.026 31.5,112.5C 30.0508,111.828 28.7175,111.161 27.5,110.5C 30.2469,110.813 32.9135,110.48 35.5,109.5C 33.9223,108.702 32.2556,108.202 30.5,108C 32.568,105.358 34.2347,102.525 35.5,99.5 Z"/></g>
<g><path style="opacity:1" fill="#ad6c54" d="M 36.5,102.5 C 37.7479,103.334 38.4146,104.667 38.5,106.5C 38.1667,107.833 37.8333,109.167 37.5,110.5C 36.52,107.914 36.1866,105.247 36.5,102.5 Z"/></g>
<g><path style="opacity:1" fill="#97452f" d="M 39.5,102.5 C 41.6106,102.772 43.7772,103.105 46,103.5C 46.6667,105.833 46.6667,108.167 46,110.5C 45.5045,108.527 45.3379,106.527 45.5,104.5C 44.1779,104.33 43.0113,104.663 42,105.5C 41.7978,107.256 41.2978,108.922 40.5,110.5C 39.52,107.914 39.1866,105.247 39.5,102.5 Z"/></g>
<g><path style="opacity:1" fill="#fde97a" d="M 58.5,96.5 C 59.8333,96.5 61.1667,96.5 62.5,96.5C 64.2517,101.685 64.7517,107.019 64,112.5C 62.6233,114.754 61.1233,116.92 59.5,119C 62.146,119.497 64.8127,119.664 67.5,119.5C 61.69,120.49 55.69,120.823 49.5,120.5C 49.369,119.761 49.5357,119.094 50,118.5C 53.9195,116.916 56.9195,114.25 59,110.5C 59.4614,105.816 59.2947,101.149 58.5,96.5 Z"/></g>
<g><path style="opacity:0.135" fill="#d2c37d" d="M -0.5,76.5 C -0.166667,76.5 0.166667,76.5 0.5,76.5C 10.3478,76.1729 20.0144,76.5062 29.5,77.5C 28.8333,77.5 28.1667,77.5 27.5,77.5C 20.5,77.5 13.5,77.5 6.5,77.5C 4.5,77.5 2.5,77.5 0.5,77.5C 0.5,99.1667 0.5,120.833 0.5,142.5C 0.166667,142.5 -0.166667,142.5 -0.5,142.5C -0.5,120.5 -0.5,98.5 -0.5,76.5 Z"/></g>
<g><path style="opacity:1" fill="#f8e975" d="M 16.5,96.5 C 19.5,96.5 22.5,96.5 25.5,96.5C 23.4991,103.151 23.3324,109.818 25,116.5C 32.2107,118.505 39.3774,120.172 46.5,121.5C 45.5423,122.962 44.3756,124.295 43,125.5C 42.51,126.793 42.3433,128.127 42.5,129.5C 42.5,131.167 42.5,132.833 42.5,134.5C 42.5,137.5 42.5,140.5 42.5,143.5C 41.7176,138.463 40.7176,133.463 39.5,128.5C 39.2562,125.737 37.9229,123.571 35.5,122C 31.4899,121.499 27.4899,120.999 23.5,120.5C 22.791,119.596 21.791,119.263 20.5,119.5C 19.5722,116.87 18.5722,114.204 17.5,111.5C 16.5059,106.544 16.1725,101.544 16.5,96.5 Z"/></g>
<g><path style="opacity:1" fill="#69624f" d="M 1.5,111.5 C 3.19919,111.34 4.86586,111.506 6.5,112C 7.05851,112.725 7.39184,113.558 7.5,114.5C 6.49493,118.681 4.49493,119.347 1.5,116.5C 1.5,114.833 1.5,113.167 1.5,111.5 Z"/></g>
<g><path style="opacity:1" fill="#b07d5b" d="M 33.5,116.5 C 34.7914,115.527 34.7914,114.527 33.5,113.5C 35.396,112.534 37.396,112.201 39.5,112.5C 39.5,113.833 39.5,115.167 39.5,116.5C 37.5,116.5 35.5,116.5 33.5,116.5 Z"/></g>
<g><path style="opacity:1" fill="#b4835f" d="M 49.5,113.5 C 49.5,114.833 49.5,116.167 49.5,117.5C 48.5,117.5 47.5,117.5 46.5,117.5C 45.5313,116.691 44.6979,115.691 44,114.5C 43.2904,115.973 42.1238,116.64 40.5,116.5C 40.5,115.5 40.5,114.5 40.5,113.5C 43.5,113.5 46.5,113.5 49.5,113.5 Z"/></g>
<g><path style="opacity:1" fill="#138a43" d="M 75.5,119.5 C 75.8333,119.5 76.1667,119.5 76.5,119.5C 77.8333,119.5 79.1667,119.5 80.5,119.5C 80.5,121.833 80.5,124.167 80.5,126.5C 74.2108,128.079 67.8775,128.413 61.5,127.5C 66.8333,126.5 72.1667,125.5 77.5,124.5C 74.5719,123.516 71.5719,123.183 68.5,123.5C 69.2625,122.732 70.2625,122.232 71.5,122C 71.1667,121.667 70.8333,121.333 70.5,121C 72.3817,120.802 74.0484,120.302 75.5,119.5 Z"/></g>
<g><path style="opacity:1" fill="#f5a125" d="M 7.5,119.5 C 10.8333,119.833 14.1667,120.167 17.5,120.5C 19.5,120.5 21.5,120.5 23.5,120.5C 27.4899,120.999 31.4899,121.499 35.5,122C 37.9229,123.571 39.2562,125.737 39.5,128.5C 39.5,130.5 39.5,132.5 39.5,134.5C 27.4363,134.62 15.4363,134.12 3.5,133C 2.56969,134.395 2.56969,135.895 3.5,137.5C 4.437,139.288 5.77033,140.621 7.5,141.5C 6.16667,141.5 4.83333,141.5 3.5,141.5C 1.95631,137.891 1.28965,134.057 1.5,130C 1.50224,126.979 1.83558,124.146 2.5,121.5C 4.69798,121.88 6.36465,121.213 7.5,119.5 Z"/></g>
<g><path style="opacity:1" fill="#23a249" d="M 67.5,119.5 C 70.1667,119.5 72.8333,119.5 75.5,119.5C 74.0484,120.302 72.3817,120.802 70.5,121C 70.8333,121.333 71.1667,121.667 71.5,122C 70.2625,122.232 69.2625,122.732 68.5,123.5C 63.6446,124.691 58.6446,124.691 53.5,123.5C 53.5,124.5 53.5,125.5 53.5,126.5C 55.7354,126.205 57.7354,126.539 59.5,127.5C 58.791,128.404 57.791,128.737 56.5,128.5C 55.1667,128.5 53.8333,128.5 52.5,128.5C 49.8333,128.5 47.1667,128.5 44.5,128.5C 44.6332,131.925 43.9665,132.258 42.5,129.5C 42.3433,128.127 42.51,126.793 43,125.5C 44.3756,124.295 45.5423,122.962 46.5,121.5C 47.609,121.443 48.609,121.11 49.5,120.5C 55.69,120.823 61.69,120.49 67.5,119.5 Z"/></g>
<g><path style="opacity:1" fill="#bf631e" d="M 3.5,122.5 C 6.72797,123.414 10.0613,123.747 13.5,123.5C 13.5,124.5 13.5,125.5 13.5,126.5C 10.4816,126.665 7.48162,126.498 4.5,126C 3.66337,124.989 3.33003,123.822 3.5,122.5 Z"/></g>
<g><path style="opacity:1" fill="#c2661e" d="M 14.5,124.5 C 16.7659,124.141 18.5993,124.808 20,126.5C 22.7947,125.217 25.6281,125.217 28.5,126.5C 23.8804,127.493 19.2137,127.827 14.5,127.5C 14.5,126.5 14.5,125.5 14.5,124.5 Z"/></g>
<g><path style="opacity:1" fill="#89c3a2" d="M 68.5,123.5 C 71.5719,123.183 74.5719,123.516 77.5,124.5C 72.1667,125.5 66.8333,126.5 61.5,127.5C 67.8775,128.413 74.2108,128.079 80.5,126.5C 80.5,127.167 80.5,127.833 80.5,128.5C 74.0008,130.268 67.3341,130.935 60.5,130.5C 60.7373,129.209 60.404,128.209 59.5,127.5C 57.7354,126.539 55.7354,126.205 53.5,126.5C 53.5,125.5 53.5,124.5 53.5,123.5C 58.6446,124.691 63.6446,124.691 68.5,123.5 Z"/></g>
<g><path style="opacity:1" fill="#c76c24" d="M 3.5,127.5 C 13.6915,128.735 23.6915,129.735 33.5,130.5C 33.2907,131.086 32.9574,131.586 32.5,132C 23.4361,132.358 14.4361,131.691 5.5,130C 4.24402,129.583 3.57735,128.75 3.5,127.5 Z"/></g>
<g><path style="opacity:1" fill="#139b4b" d="M 59.5,127.5 C 60.404,128.209 60.7373,129.209 60.5,130.5C 67.3341,130.935 74.0008,130.268 80.5,128.5C 80.5,129.833 80.5,131.167 80.5,132.5C 67.8785,133.898 55.2119,134.564 42.5,134.5C 42.5,132.833 42.5,131.167 42.5,129.5C 43.9665,132.258 44.6332,131.925 44.5,128.5C 47.1667,128.5 49.8333,128.5 52.5,128.5C 50.3021,129.165 47.9688,129.832 45.5,130.5C 50.1667,131.833 54.8333,131.833 59.5,130.5C 58.3984,129.824 57.3984,129.158 56.5,128.5C 57.791,128.737 58.791,128.404 59.5,127.5 Z"/></g>
<g><path style="opacity:1" fill="#8ec8a9" d="M 52.5,128.5 C 53.8333,128.5 55.1667,128.5 56.5,128.5C 57.3984,129.158 58.3984,129.824 59.5,130.5C 54.8333,131.833 50.1667,131.833 45.5,130.5C 47.9688,129.832 50.3021,129.165 52.5,128.5 Z"/></g>
<g><path style="opacity:1" fill="#f38608" d="M 39.5,134.5 C 39.5,137.5 39.5,140.5 39.5,143.5C 28.7408,143.86 18.0741,143.193 7.5,141.5C 5.77033,140.621 4.437,139.288 3.5,137.5C 2.56969,135.895 2.56969,134.395 3.5,133C 15.4363,134.12 27.4363,134.62 39.5,134.5 Z"/></g>
<g><path style="opacity:1" fill="#147233" d="M 76.5,119.5 C 76.5,119.167 76.5,118.833 76.5,118.5C 78.1667,118.5 79.8333,118.5 81.5,118.5C 81.8844,125.589 81.3844,132.589 80,139.5C 78.0551,140.863 75.8884,141.697 73.5,142C 68.6486,142.174 63.9819,142.674 59.5,143.5C 53.8333,143.5 48.1667,143.5 42.5,143.5C 42.5,140.5 42.5,137.5 42.5,134.5C 55.2119,134.564 67.8785,133.898 80.5,132.5C 80.5,131.167 80.5,129.833 80.5,128.5C 80.5,127.833 80.5,127.167 80.5,126.5C 80.5,124.167 80.5,121.833 80.5,119.5C 79.1667,119.5 77.8333,119.5 76.5,119.5 Z"/></g>
<g><path style="opacity:1" fill="#73a989" d="M 60.5,136.5 C 61.2216,136.918 61.7216,137.584 62,138.5C 66.3867,136.639 70.8867,136.306 75.5,137.5C 71.8078,138.393 68.1411,139.393 64.5,140.5C 62.2922,139.601 60.1255,139.935 58,141.5C 54.27,140.54 50.4367,140.207 46.5,140.5C 46.5,139.5 46.5,138.5 46.5,137.5C 51.3633,137.819 56.03,137.486 60.5,136.5 Z"/></g>
<g><path style="opacity:1" fill="#d96813" d="M 16.5,136.5 C 18.451,136.227 19.951,136.893 21,138.5C 22.049,136.893 23.549,136.227 25.5,136.5C 25.8333,140.5 26.1667,140.5 26.5,136.5C 29.1873,136.336 31.854,136.503 34.5,137C 35.9295,138.88 35.5962,140.38 33.5,141.5C 32.7492,140.624 32.2492,139.624 32,138.5C 31.6667,139.167 31.3333,139.833 31,140.5C 30.5814,139.328 29.9147,138.328 29,137.5C 28.3757,139.958 26.8757,141.624 24.5,142.5C 22.0983,140.951 19.4317,140.284 16.5,140.5C 16.5,139.167 16.5,137.833 16.5,136.5 Z"/></g>
<g><path style="opacity:1" fill="#f4d020" d="M 39.5,128.5 C 40.7176,133.463 41.7176,138.463 42.5,143.5C 48.1667,143.5 53.8333,143.5 59.5,143.5C 63.1817,143.335 66.8484,143.501 70.5,144C 69.944,144.383 69.6107,144.883 69.5,145.5C 53.1838,146.369 36.8504,146.703 20.5,146.5C 18.0521,145.527 15.3854,145.194 12.5,145.5C 9.78809,143.432 6.78809,142.099 3.5,141.5C 4.83333,141.5 6.16667,141.5 7.5,141.5C 18.0741,143.193 28.7408,143.86 39.5,143.5C 39.5,140.5 39.5,137.5 39.5,134.5C 39.5,132.5 39.5,130.5 39.5,128.5 Z"/></g>
<g><path style="opacity:1" fill="#51301d" d="M 0.5,142.5 C 4.2728,144.256 8.2728,145.256 12.5,145.5C 15.3854,145.194 18.0521,145.527 20.5,146.5C 20.1072,149.513 20.7739,152.18 22.5,154.5C 21.1266,154.343 19.7932,154.51 18.5,155C 19.4158,155.278 20.0825,155.778 20.5,156.5C 14.5765,156.549 8.90982,155.382 3.5,153C 0.899949,150.016 -0.100051,146.516 0.5,142.5 Z"/></g>
<g><path style="opacity:1" fill="#603a20" d="M 69.5,145.5 C 69.8333,145.5 70.1667,145.5 70.5,145.5C 68.0521,146.473 65.3854,146.806 62.5,146.5C 62.6621,148.527 62.4955,150.527 62,152.5C 59.8805,152.626 57.7138,152.959 55.5,153.5C 56.7287,154.281 58.062,154.781 59.5,155C 46.9931,155.827 34.6597,155.66 22.5,154.5C 20.7739,152.18 20.1072,149.513 20.5,146.5C 36.8504,146.703 53.1838,146.369 69.5,145.5 Z"/></g>
<g><path style="opacity:0.999" fill="#532f1c" d="M 82.5,142.5 C 83.4037,148.977 80.7371,153.144 74.5,155C 56.5129,157.633 38.5129,158.133 20.5,156.5C 20.0825,155.778 19.4158,155.278 18.5,155C 19.7932,154.51 21.1266,154.343 22.5,154.5C 34.6597,155.66 46.9931,155.827 59.5,155C 58.062,154.781 56.7287,154.281 55.5,153.5C 57.7138,152.959 59.8805,152.626 62,152.5C 62.4955,150.527 62.6621,148.527 62.5,146.5C 65.3854,146.806 68.0521,146.473 70.5,145.5C 74.5489,144.714 78.5489,143.714 82.5,142.5 Z"/></g>
</svg>
